<svg width="22" height="24" viewBox="0 0 22 24" fill="none" xmlns="http://www.w3.org/2000/svg">
<path d="M7.13571 13.5H5.20714C4.88893 13.5 4.62857 13.2469 4.62857 12.9375V11.0625C4.62857 10.7531 4.88893 10.5 5.20714 10.5H7.13571C7.45393 10.5 7.71429 10.7531 7.71429 11.0625V12.9375C7.71429 13.2469 7.45393 13.5 7.13571 13.5ZM12.3429 12.9375V11.0625C12.3429 10.7531 12.0825 10.5 11.7643 10.5H9.83571C9.5175 10.5 9.25714 10.7531 9.25714 11.0625V12.9375C9.25714 13.2469 9.5175 13.5 9.83571 13.5H11.7643C12.0825 13.5 12.3429 13.2469 12.3429 12.9375ZM16.9714 12.9375V11.0625C16.9714 10.7531 16.7111 10.5 16.3929 10.5H14.4643C14.1461 10.5 13.8857 10.7531 13.8857 11.0625V12.9375C13.8857 13.2469 14.1461 13.5 14.4643 13.5H16.3929C16.7111 13.5 16.9714 13.2469 16.9714 12.9375ZM12.3429 17.4375V15.5625C12.3429 15.2531 12.0825 15 11.7643 15H9.83571C9.5175 15 9.25714 15.2531 9.25714 15.5625V17.4375C9.25714 17.7469 9.5175 18 9.83571 18H11.7643C12.0825 18 12.3429 17.7469 12.3429 17.4375ZM7.71429 17.4375V15.5625C7.71429 15.2531 7.45393 15 7.13571 15H5.20714C4.88893 15 4.62857 15.2531 4.62857 15.5625V17.4375C4.62857 17.7469 4.88893 18 5.20714 18H7.13571C7.45393 18 7.71429 17.7469 7.71429 17.4375ZM16.9714 17.4375V15.5625C16.9714 15.2531 16.7111 15 16.3929 15H14.4643C14.1461 15 13.8857 15.2531 13.8857 15.5625V17.4375C13.8857 17.7469 14.1461 18 14.4643 18H16.3929C16.7111 18 16.9714 17.7469 16.9714 17.4375ZM21.6 5.25V21.75C21.6 22.9922 20.5634 24 19.2857 24H2.31429C1.03661 24 0 22.9922 0 21.75V5.25C0 4.00781 1.03661 3 2.31429 3H4.62857V0.5625C4.62857 0.253125 4.88893 0 5.20714 0H7.13571C7.45393 0 7.71429 0.253125 7.71429 0.5625V3H13.8857V0.5625C13.8857 0.253125 14.1461 0 14.4643 0H16.3929C16.7111 0 16.9714 0.253125 16.9714 0.5625V3H19.2857C20.5634 3 21.6 4.00781 21.6 5.25ZM19.2857 21.4688V7.5H2.31429V21.4688C2.31429 21.6234 2.44446 21.75 2.60357 21.75H18.9964C19.1555 21.75 19.2857 21.6234 19.2857 21.4688Z" fill="#F2994A"/>
</svg>
