<svg width="30" height="27" viewBox="0 0 30 27" fill="none" xmlns="http://www.w3.org/2000/svg">
<path d="M3.23995 12.7101C4.64275 12.7101 5.77995 11.5729 5.77995 10.1701C5.77995 8.76726 4.64275 7.63007 3.23995 7.63007C1.83715 7.63007 0.699951 8.76726 0.699951 10.1701C0.699951 11.5729 1.83715 12.7101 3.23995 12.7101Z" fill="#F2994A"/>
<path d="M3.23995 5.92006C4.64275 5.92006 5.77995 4.78286 5.77995 3.38006C5.77995 1.97725 4.64275 0.840057 3.23995 0.840057C1.83715 0.840057 0.699951 1.97725 0.699951 3.38006C0.699951 4.78286 1.83715 5.92006 3.23995 5.92006Z" fill="#6FCF97"/>
<path d="M3.23995 26.3201C4.64275 26.3201 5.77995 25.1829 5.77995 23.7801C5.77995 22.3772 4.64275 21.2401 3.23995 21.2401C1.83715 21.2401 0.699951 22.3772 0.699951 23.7801C0.699951 25.1829 1.83715 26.3201 3.23995 26.3201Z" fill="#CCCCCC"/>
<path d="M3.23995 19.5301C4.64275 19.5301 5.77995 18.3929 5.77995 16.9901C5.77995 15.5873 4.64275 14.4501 3.23995 14.4501C1.83715 14.4501 0.699951 15.5873 0.699951 16.9901C0.699951 18.3929 1.83715 19.5301 3.23995 19.5301Z" fill="#EB5757"/>
<path d="M25.17 4.47007H9.89001C9.62279 4.44426 9.37476 4.31986 9.19428 4.12111C9.01381 3.92237 8.91382 3.66352 8.91382 3.39506C8.91382 3.1266 9.01381 2.86776 9.19428 2.66902C9.37476 2.47027 9.62279 2.34587 9.89001 2.32006H25.17C25.3199 2.30559 25.4712 2.32262 25.6141 2.37006C25.757 2.4175 25.8884 2.4943 25.9999 2.59553C26.1113 2.69676 26.2004 2.82018 26.2614 2.95787C26.3223 3.09556 26.3538 3.24448 26.3538 3.39506C26.3538 3.54564 26.3223 3.69456 26.2614 3.83226C26.2004 3.96995 26.1113 4.09337 25.9999 4.1946C25.8884 4.29583 25.757 4.37263 25.6141 4.42007C25.4712 4.46751 25.3199 4.48454 25.17 4.47007Z" fill="#333333"/>
<path d="M22.23 11.2101H9.89001C9.62279 11.1843 9.37476 11.0598 9.19428 10.8611C9.01381 10.6624 8.91382 10.4035 8.91382 10.1351C8.91382 9.8666 9.01381 9.60775 9.19428 9.40901C9.37476 9.21026 9.62279 9.08586 9.89001 9.06005H22.23C22.3799 9.04558 22.5312 9.06261 22.6741 9.11005C22.817 9.15749 22.9484 9.23429 23.0599 9.33552C23.1713 9.43675 23.2604 9.56018 23.3214 9.69787C23.3823 9.83556 23.4138 9.98448 23.4138 10.1351C23.4138 10.2856 23.3823 10.4346 23.3214 10.5722C23.2604 10.7099 23.1713 10.8334 23.0599 10.9346C22.9484 11.0358 22.817 11.1126 22.6741 11.1601C22.5312 11.2075 22.3799 11.2245 22.23 11.2101Z" fill="#333333"/>
<path d="M28.0001 18.0001H9.89006C9.60362 18.0001 9.32892 17.8863 9.12638 17.6837C8.92385 17.4812 8.81006 17.2065 8.81006 16.9201C8.81006 16.6336 8.92385 16.3589 9.12638 16.1564C9.32892 15.9538 9.60362 15.8401 9.89006 15.8401H28.0001C28.2865 15.8401 28.5612 15.9538 28.7637 16.1564C28.9663 16.3589 29.0801 16.6336 29.0801 16.9201C29.0801 17.2065 28.9663 17.4812 28.7637 17.6837C28.5612 17.8863 28.2865 18.0001 28.0001 18.0001Z" fill="#333333"/>
<path d="M24.17 24.8401H9.89001C9.62279 24.8143 9.37476 24.6899 9.19428 24.4911C9.01381 24.2924 8.91382 24.0335 8.91382 23.7651C8.91382 23.4966 9.01381 23.2378 9.19428 23.039C9.37476 22.8403 9.62279 22.7159 9.89001 22.6901H24.17C24.4372 22.7159 24.6853 22.8403 24.8657 23.039C25.0462 23.2378 25.1462 23.4966 25.1462 23.7651C25.1462 24.0335 25.0462 24.2924 24.8657 24.4911C24.6853 24.6899 24.4372 24.8143 24.17 24.8401Z" fill="#333333"/>
</svg>
