<svg xmlns="http://www.w3.org/2000/svg" viewBox="0 0 777.87 107.85"><defs><style>.cls-1{fill:#fff;} .cls-2{fill:var(--ld-text)}</style></defs><title>Asset 1</title><g id="Layer_2" data-name="Layer 2"><g id="Layer_1-2" data-name="Layer 1"><path class="cls-1" d="M777.87,68.47v39.38H0V0H777.87V20h-7.34V54.29c-9-10.33-17.31-20.74-25.6-31.16-2.7-3.4-4.11-3.83-8.5-2.55V68.21h7.06V33.57c1.2,1.41,1.89,2.17,2.53,3,7.06,8.85,14.3,17.56,21.07,26.62C770,67,772.9,69.44,777.87,68.47ZM439,17.08h0V13.37C439,5.8,433.85.66,426.26.62c-2.57,0-5.15,0-7.73,0a12,12,0,0,0-12,11.94c-.05,2.85.17,5.72-.09,8.55A6.73,6.73,0,0,1,404.7,25c-5.28,5.34-8.15,11.6-8.1,19.14a26,26,0,0,0,19.56,25.11,26.26,26.26,0,0,0,29.25-12.14,25.71,25.71,0,0,0-4-31.27c-1.85-1.84-2.93-3.57-2.51-6.17A15.6,15.6,0,0,0,439,17.08ZM729.8,20.62a19.8,19.8,0,0,0-2.17-.49c-4.53-.39-4.53-.38-6,3.9Q718,35.1,714.28,46.16c-1.31,3.93-2.61,7.86-4.13,12.45-.54-1.39-.83-2-1-2.73-3.63-11-7.33-22-10.82-33-.7-2.2-1.64-3-4-2.86s-4.17-.15-5.11,2.95c-2.66,8.71-5.76,17.28-8.74,25.88-.93,2.7-2,5.34-3.3,8.72-.67-1.82-1.09-2.86-1.44-3.92-3.43-10.45-6.83-20.91-10.3-31.35-.26-.8-.9-2-1.47-2.08a57.47,57.47,0,0,0-6.62-.1c.29,1.18.37,1.64.52,2.08q7,21.21,13.94,42.44C673.26,69.12,673.28,69,678,69c2.12,0,3.12-.66,3.81-2.79,3.22-9.92,6.67-19.77,10.06-29.64.47-1.35,1.08-2.65,1.86-4.54.59,1.49.93,2.27,1.2,3.07q5.1,14.81,10.18,29.61c1.5,4.36,1.51,4.24,6,4.4,2.15.08,3.13-.52,3.8-2.66,2.9-9.23,6-18.38,9.08-27.57C725.88,32.85,727.8,26.82,729.8,20.62Zm-177,48.06c6.71,0,13.18.11,19.65-.05a38.82,38.82,0,0,0,9.33-1.14c11.19-3.15,16.41-11.39,16.73-24.4a22.42,22.42,0,0,0-19.39-22.52c-6.72-.73-13.51-.75-20.28-1-2-.08-3.95,0-6,0Zm77.11.43c14.39.1,25.06-10.41,25-24.66,0-14.71-10.33-24.79-25.34-25.08-12.5-.24-25.69,8.37-25.92,24.5C603.43,58.58,614.85,69.76,629.88,69.11Zm-506.75.08c10.1.19,19.31-4.75,23.38-13.12,4.46-9.15,4.12-18.29-2-26.63-5.87-8-14.29-10.58-23.93-10A24.8,24.8,0,0,0,97.76,49.24C100.26,61.32,109.94,68.93,123.13,69.19ZM50.68,20.49v48h6.64V53.8c4.29,0,8.3.22,12.26-.09a4.68,4.68,0,0,1,4.86,2.45c2,3.11,4.22,6.1,6.37,9.13C83.4,69,85.62,69.62,90.28,68L79.37,52.54a8.2,8.2,0,0,1,.8-.6c7.68-4,10.84-9.9,9.61-17.89-1.13-7.26-6-12.57-14.27-13.39S59.13,20.49,50.68,20.49Zm461,47.84a22.43,22.43,0,0,0,0-3.41c-1.13-6.36,1.31-11.06,6.3-15,2-1.53,3-2.05,4.73.17,4,5.07,8.32,9.92,12.51,14.86,3.08,3.64,6.22,4.47,11.23,2.74L525.67,42l19.7-21.37c-1.57-.15-2.62-.17-3.64-.37-3.08-.59-5.32.34-7.46,2.78-4.34,4.93-9,9.57-13.65,14.23-2.78,2.8-5.73,5.43-8.92,8.44V20.31h-6.87v48Zm-504.19.2c0-4.09.14-7.88-.06-11.65-.13-2.46.81-3,3.11-3,4.57.06,9.17,0,13.72-.36,9-.74,15.39-7.06,15.76-15.18.45-9.58-4.48-16.47-14-17.62-8.19-1-16.55-.49-24.83-.63-.14,0-.28.23-.32.25V68.53Zm221.76-48.4H195.15V68.46h35.13V62.59H202V46.73h24.24V41H223c-6.21,0-12.42,0-18.63-.06-.83,0-2.36-.7-2.37-1.12-.18-4.53-.11-9.06-.11-13.89h27.4ZM496.7,27.55c-5.75-7.36-17.79-10.24-27.31-6.9-10.77,3.78-17,12.84-16.7,24.26.29,10.94,6.72,19.9,16.48,23,10.42,3.27,22.19.47,27.12-6.36l-4.56-4.59c-10.43,7.39-20,7.31-27-.28-6.11-6.61-6.14-17.55-.07-24.53,6.77-7.79,15.9-7.9,26.81-.65Zm-214.86-.67c-5.77-7.13-18.22-9.63-28.44-5.69a24.13,24.13,0,0,0-15.68,24.1c.53,11.26,7.52,20.13,18.09,23,9.95,2.66,21.9-.46,26.26-7.1-.68-.57-1.41-1.17-2.13-1.79s-1.5-1.33-2.22-2c-9.32,8.76-22.34,6.19-28.31-.32-6.37-7-6.34-18.55,0-25.53,5.67-6.25,18.66-9.45,28.55-.26C279.18,29.87,280.44,28.45,281.84,26.88ZM154.47,58.29a18.68,18.68,0,0,0-2.35,2.79,2.63,2.63,0,0,0,0,2.37c3.79,5,12.33,7.12,19.38,4.91,5.58-1.74,8.89-6.58,9-13.78.15-11,.08-22,.09-33.07a8.36,8.36,0,0,0-.22-1.36H156.18V26h17.5c0,10.1.25,19.79-.09,29.45-.21,5.9-4.87,9.06-10.63,7.39C160.08,62,157.56,60,154.47,58.29ZM369.55,62V20.28h-6.82V68.81h32.95V62ZM301.46,26V68.46h6.87V25.93h16.6V20.15h-40C284,26,284,26,289.43,26Z"/><path class=".cls-2" d="M777.87,68.47c-5,1-7.91-1.48-10.78-5.31-6.77-9.06-14-17.77-21.07-26.62-.64-.8-1.33-1.56-2.53-3V68.21h-7.06V20.58c4.39-1.28,5.8-.85,8.5,2.55,8.29,10.42,16.59,20.83,25.6,31.16V20h7.34Z"/><path class=".cls-2" d="M439,17.08a15.6,15.6,0,0,1,0,2.56c-.42,2.6.66,4.33,2.51,6.17a25.71,25.71,0,0,1,4,31.27,26.26,26.26,0,0,1-29.25,12.14A26,26,0,0,1,396.6,44.11c-.05-7.54,2.82-13.8,8.1-19.14a6.73,6.73,0,0,0,1.69-3.85c.26-2.83,0-5.7.09-8.55a12,12,0,0,1,12-11.94c2.58,0,5.16,0,7.73,0C433.85.66,439,5.8,439,13.37v3.71Zm-6,2.58c1-7.06.36-10.91-2.92-12.26-4.84-2-10.25-2.32-14.86.14-4.89,2.6-2.62,7.84-3.16,12.17C424.18,16.64,425.28,17.8,433,19.66ZM429.31,46.5h-13.1c.36,5.44,1,10.57,3.86,15.13,1.81,2.93,3.5,3,5.3.14C428.3,57.16,429,51.94,429.31,46.5Zm0-5c-.41-5.58-1.1-10.73-3.92-15.29-1.69-2.75-3.5-2.85-5.18-.19-3,4.67-3.76,9.93-4,15.48Zm14.29,4.79c-2.74,0-5.31-.11-7.85.08A2.53,2.53,0,0,0,434.06,48c-1.15,5.2-2.14,10.44-3.12,15.42C437.18,61.91,443.79,53.53,443.62,46.29Zm-41.65,0c-.55,6.85,6.35,15.62,12.64,17.15-1-4.92-2-10.16-3.13-15.36a2.72,2.72,0,0,0-1.89-1.71C407.14,46.16,404.66,46.29,402,46.29Zm28.92-22c1,5.17,2,10.41,3.16,15.62a2.5,2.5,0,0,0,1.65,1.65c2.64.18,5.3.08,7.92.08C444.13,34.68,437,26,430.89,24.3Zm-29,17.28c2.73,0,5.29.08,7.84-.06a2.28,2.28,0,0,0,1.69-1.31c1.11-5.2,2.07-10.42,3-15.5C408.68,25.61,401.67,34.5,401.91,41.58Z"/><path class=".cls-2" d="M729.8,20.62c-2,6.2-3.92,12.23-5.9,18.24-3,9.19-6.18,18.34-9.08,27.57-.67,2.14-1.65,2.74-3.8,2.66-4.45-.16-4.46,0-6-4.4Q700,49.89,694.88,35.08c-.27-.8-.61-1.58-1.2-3.07-.78,1.89-1.39,3.19-1.86,4.54-3.39,9.87-6.84,19.72-10.06,29.64C681.07,68.32,680.07,69,678,69c-4.67,0-4.69.14-6.16-4.33q-7-21.23-13.94-42.44c-.15-.44-.23-.9-.52-2.08a57.47,57.47,0,0,1,6.62.1c.57.07,1.21,1.28,1.47,2.08,3.47,10.44,6.87,20.9,10.3,31.35.35,1.06.77,2.1,1.44,3.92,1.28-3.38,2.37-6,3.3-8.72,3-8.6,6.08-17.17,8.74-25.88.94-3.1,2.81-2.79,5.11-2.95s3.27.66,4,2.86c3.49,11,7.19,22,10.82,33,.22.68.51,1.34,1,2.73,1.52-4.59,2.82-8.52,4.13-12.45Q718,35.11,721.67,24c1.43-4.28,1.43-4.29,6-3.9A19.8,19.8,0,0,1,729.8,20.62Z"/><path class=".cls-2" d="M552.77,68.68V19.52c2.09,0,4.07-.07,6,0,6.77.29,13.56.31,20.28,1a22.42,22.42,0,0,1,19.39,22.52c-.32,13-5.54,21.25-16.73,24.4a38.82,38.82,0,0,1-9.33,1.14C566,68.79,559.48,68.68,552.77,68.68Zm6.94-7.08c6.08,0,11.8.09,17.51-.05a11.33,11.33,0,0,0,4.36-1.23c7.51-3.56,10.72-10.49,9.22-20.11-1-6.43-4.91-11.18-11.06-12.47-6.42-1.36-13.2-1-20-1.44Z"/><path class=".cls-2" d="M629.88,69.11c-15,.65-26.45-10.53-26.23-25.24.23-16.13,13.42-24.74,25.92-24.5,15,.29,25.32,10.37,25.34,25.08C654.94,58.7,644.27,69.21,629.88,69.11Zm-.68-6.79c11,0,18.16-7.26,18.14-18.29,0-10.36-7.65-17.89-18.1-17.86S611.08,33.62,611,44C610.87,52.49,617.26,63,629.2,62.32Z"/><path class=".cls-2" d="M123.13,69.19c-13.19-.26-22.87-7.87-25.37-19.95a24.8,24.8,0,0,1,22.81-29.76c9.64-.62,18.06,2,23.93,10,6.13,8.34,6.47,17.48,2,26.63C142.44,64.44,133.23,69.38,123.13,69.19Zm.29-6.17c11-.07,19-8,18.91-18.91-.05-10.67-8.16-18.59-19-18.55-11.18.05-19.18,8-19.09,19.05C104.35,55.21,112.54,63.08,123.42,63Z"/><path class=".cls-2" d="M50.68,20.49c8.45,0,16.71-.63,24.83.17s13.14,6.13,14.27,13.39c1.23,8-1.93,13.87-9.61,17.89a8.2,8.2,0,0,0-.8.6L90.28,68c-4.66,1.58-6.88.92-9.47-2.75-2.15-3-4.35-6-6.37-9.13a4.68,4.68,0,0,0-4.86-2.45c-4,.31-8,.09-12.26.09V68.46H50.68Zm6.76,28c6.41-.54,12.62-.63,18.64-1.73,4.6-.85,7-5.08,7-9.91S80.59,28.42,76.2,27C70.07,25.08,63.79,26.3,57.44,26Z"/><path class=".cls-2" d="M511.71,68.33h-6.88v-48h6.87V45.67c3.19-3,6.14-5.64,8.92-8.44,4.63-4.66,9.31-9.3,13.65-14.23,2.14-2.44,4.38-3.37,7.46-2.78,1,.2,2.07.22,3.64.37L525.67,42l20.79,25.77c-5,1.73-8.15.9-11.23-2.74-4.19-4.94-8.48-9.79-12.51-14.86C521,47.91,520,48.43,518,50c-5,3.9-7.43,8.6-6.3,15A22.43,22.43,0,0,1,511.71,68.33Z"/><path class=".cls-2" d="M7.52,68.53H.85V20.35s.18-.26.32-.25c8.28.14,16.64-.36,24.83.63,9.57,1.15,14.5,8,14,17.62-.37,8.12-6.79,14.44-15.76,15.18-4.55.38-9.15.42-13.72.36-2.3,0-3.24.53-3.11,3C7.66,60.65,7.52,64.44,7.52,68.53Zm.26-42.8V47.45c5.58,0,10.93.37,16.2-.1,5.65-.5,8.89-4.4,9.19-9.85s-2.48-9.83-8.06-10.73S13.63,26,7.78,25.73Z"/><path class=".cls-2" d="M229.28,20.13V26h-27.4c0,4.83-.07,9.36.11,13.89,0,.42,1.54,1.11,2.37,1.12,6.21.1,12.42.06,18.63.06h3.26v5.71H202V62.59h28.27v5.87H195.15V20.13Z"/><path class=".cls-2" d="M496.7,27.55l-5.24,3.91c-10.91-7.25-20-7.14-26.81.65-6.07,7-6,17.92.07,24.53,7,7.59,16.58,7.67,27,.28l4.56,4.59c-4.93,6.83-16.7,9.63-27.12,6.36-9.76-3.06-16.19-12-16.48-23-.3-11.42,5.93-20.48,16.7-24.26C478.91,17.31,491,20.19,496.7,27.55Z"/><path class=".cls-2" d="M281.84,26.88c-1.4,1.57-2.66,3-3.9,4.4-9.89-9.19-22.88-6-28.55.26-6.32,7-6.35,18.58,0,25.53,6,6.51,19,9.08,28.31.32.72.64,1.46,1.31,2.22,2s1.45,1.22,2.13,1.79c-4.36,6.64-16.31,9.76-26.26,7.1-10.57-2.83-17.56-11.7-18.09-23a24.13,24.13,0,0,1,15.68-24.1C263.62,17.25,276.07,19.75,281.84,26.88Z"/><path class=".cls-2" d="M154.47,58.29C157.56,60,160.08,62,163,62.86c5.76,1.67,10.42-1.49,10.63-7.39.34-9.66.09-19.35.09-29.45h-17.5V20.15h24.21a8.36,8.36,0,0,1,.22,1.36c0,11,.06,22-.09,33.07-.1,7.2-3.41,12-9,13.78-7.05,2.21-15.59.1-19.38-4.91a2.63,2.63,0,0,1,0-2.37A18.68,18.68,0,0,1,154.47,58.29Z"/><path d="M369.55,62h26.13v6.79H362.73V20.28h6.82Z"/><path class=".cls-2" d="M301.46,26h-12c-5.47,0-5.47,0-4.52-5.84h40v5.78h-16.6V68.46h-6.87Z"/><path class=".cls-2" class="cls-1" d="M433,19.66c-7.74-1.86-8.84-3-20.94.05.54-4.33-1.73-9.57,3.16-12.17,4.61-2.46,10-2.13,14.86-.14C433.38,8.75,434,12.6,433,19.66Z"/><path class="cls-1" d="M429.31,46.5c-.36,5.44-1,10.66-3.94,15.27-1.8,2.84-3.49,2.79-5.3-.14-2.82-4.56-3.5-9.69-3.86-15.13Z"/><path class="cls-1" d="M429.33,41.5H416.27c.2-5.55,1-10.81,4-15.48,1.68-2.66,3.49-2.56,5.18.19C428.23,30.77,428.92,35.92,429.33,41.5Z"/><path class="cls-1" d="M443.62,46.29c.17,7.24-6.44,15.62-12.68,17.13,1-5,2-10.22,3.12-15.42a2.53,2.53,0,0,1,1.71-1.63C438.31,46.18,440.88,46.29,443.62,46.29Z"/><path class="cls-1" d="M402,46.29c2.69,0,5.17-.13,7.62.08a2.72,2.72,0,0,1,1.89,1.71c1.17,5.2,2.15,10.44,3.13,15.36C408.32,61.91,401.42,53.14,402,46.29Z"/><path class="cls-1" d="M430.89,24.3C437,26,444.13,34.68,443.62,41.65c-2.62,0-5.28.1-7.92-.08a2.5,2.5,0,0,1-1.65-1.65C432.9,34.71,431.92,29.47,430.89,24.3Z"/><path class="cls-1" d="M401.91,41.58c-.24-7.08,6.77-16,12.57-16.87-1,5.08-1.93,10.3-3,15.5a2.28,2.28,0,0,1-1.69,1.31C407.2,41.66,404.64,41.58,401.91,41.58Z"/><path class="cls-1" d="M559.71,61.6V26.3c6.83.42,13.61.08,20,1.44,6.15,1.29,10,6,11.06,12.47,1.5,9.62-1.71,16.55-9.22,20.11a11.33,11.33,0,0,1-4.36,1.23C571.51,61.69,565.79,61.6,559.71,61.6Z"/><path class="cls-1" d="M629.2,62.32C617.26,63,610.87,52.49,611,44c.12-10.33,7.68-17.75,18.28-17.78s18.07,7.5,18.1,17.86C647.36,55.06,640.18,62.3,629.2,62.32Z"/><path class="cls-1" d="M123.42,63c-10.88.06-19.07-7.81-19.16-18.41-.09-11,7.91-19,19.09-19,10.82,0,18.93,7.88,19,18.55C142.38,55,134.45,63,123.42,63Z"/><path class="cls-1" d="M57.44,48.48V26c6.35.33,12.63-.89,18.76,1.05,4.39,1.4,6.78,5,6.84,9.82s-2.36,9.06-7,9.91C70.06,47.85,63.85,47.94,57.44,48.48Z"/><path class="cls-1" d="M7.78,25.73c5.85.3,11.68.12,17.33,1S33.47,32,33.17,37.5,29.63,46.85,24,47.35c-5.27.47-10.62.1-16.2.1Z"/></g></g></svg>