<svg width="21" height="21" viewBox="0 0 21 21" fill="none" xmlns="http://www.w3.org/2000/svg">
<path d="M20.7198 17.57L16.7698 13.62C16.5869 13.4437 16.3438 13.3436 16.0898 13.34H15.4498C16.7476 11.6961 17.3699 9.6193 17.1898 7.53263C17.0097 5.44596 16.0408 3.50644 14.4806 2.10923C12.9203 0.712023 10.886 -0.0377609 8.79221 0.0126396C6.69839 0.0630401 4.70255 0.909833 3.21132 2.3805C1.72009 3.85116 0.845662 5.83504 0.766187 7.92796C0.686712 10.0209 1.40817 12.0654 2.78358 13.6449C4.15898 15.2244 6.08485 16.2201 8.16882 16.4292C10.2528 16.6382 12.3381 16.0449 13.9998 14.77V15.41C14.0034 15.664 14.1035 15.9071 14.2798 16.09L18.2498 20C18.4335 20.1658 18.6723 20.2576 18.9198 20.2576C19.1673 20.2576 19.406 20.1658 19.5898 20L20.7198 18.88C20.8774 18.6982 20.9642 18.4656 20.9642 18.225C20.9642 17.9844 20.8774 17.7518 20.7198 17.57ZM8.93979 13.34C7.93422 13.344 6.9501 13.0494 6.11207 12.4936C5.27404 11.9378 4.61981 11.1458 4.23225 10.2179C3.84469 9.29003 3.74123 8.26799 3.93498 7.28125C4.12873 6.29451 4.61097 5.38748 5.32061 4.67502C6.03026 3.96257 6.93539 3.47676 7.92136 3.27912C8.90732 3.08148 9.92976 3.18091 10.8592 3.5648C11.7886 3.9487 12.5832 4.5998 13.1423 5.43563C13.7013 6.27146 13.9998 7.25442 13.9998 8.25999C14.0011 8.9258 13.8713 9.58534 13.6177 10.201C13.3641 10.8166 12.9918 11.3762 12.5219 11.848C12.052 12.3197 11.4939 12.6942 10.8792 12.9502C10.2646 13.2062 9.6056 13.3387 8.93979 13.34Z" fill="#333333"/>
</svg>
