<svg width="22" height="22" viewBox="0 0 22 22" fill="none" xmlns="http://www.w3.org/2000/svg">
<path d="M20.4286 8.64286H13.3571V1.57143C13.3571 0.703705 12.6534 0 11.7857 0H10.2143C9.34656 0 8.64286 0.703705 8.64286 1.57143V8.64286H1.57143C0.703705 8.64286 0 9.34656 0 10.2143V11.7857C0 12.6534 0.703705 13.3571 1.57143 13.3571H8.64286V20.4286C8.64286 21.2963 9.34656 22 10.2143 22H11.7857C12.6534 22 13.3571 21.2963 13.3571 20.4286V13.3571H20.4286C21.2963 13.3571 22 12.6534 22 11.7857V10.2143C22 9.34656 21.2963 8.64286 20.4286 8.64286Z" fill="#333333" fill-opacity="0.8"/>
</svg>
