<svg width="19" height="15" viewBox="0 0 19 15" fill="none" xmlns="http://www.w3.org/2000/svg">
  <path d="M4.22683 6.56174L14.9585 14.8559C14.7667 14.9505 14.5556 14.9998 14.3417 15H4.0297C3.65643 15 3.29844 14.8517 3.0345 14.5878C2.77055 14.3238 2.62227 13.9659 2.62227 13.5926V7.96708C2.62227 7.78235 2.65869 7.59943 2.72945 7.42879C2.80021 7.25815 2.90391 7.10314 3.03463 6.97262C3.16535 6.8421 3.32052 6.73863 3.49127 6.66813C3.66202 6.59763 3.84498 6.56146 4.0297 6.56174H4.22683ZM18.4029 13.9678L17.8349 14.699C17.7976 14.7469 17.7512 14.787 17.6984 14.817C17.6456 14.8469 17.5875 14.8662 17.5272 14.8737C17.467 14.8812 17.4059 14.8767 17.3474 14.8605C17.2889 14.8444 17.2341 14.8169 17.1863 14.7796L16.6606 14.3726C16.6413 14.3462 16.6185 14.3227 16.5928 14.3026L15.7449 13.6498L12.93 11.473L5.49013 5.70757V5.71813L4.73767 5.13735L3.39806 4.10087C3.37171 4.08087 3.34238 4.06514 3.31115 4.05425L0.178338 1.63152C0.0814905 1.55582 0.0186169 1.44478 0.00351715 1.32279C-0.0115826 1.2008 0.0223233 1.07781 0.0977905 0.980781L0.66585 0.25164C0.702989 0.203595 0.74923 0.163295 0.801937 0.133135C0.854643 0.102975 0.91278 0.0835265 0.973018 0.0758491C1.03326 0.0681716 1.09441 0.072448 1.153 0.0884241C1.21159 0.1044 1.26645 0.131751 1.31446 0.168945L4.01274 2.25468V2.24195L4.98354 2.99231C5.32847 1.99803 6.01455 1.15814 6.91998 0.621696C7.82541 0.0852517 8.89163 -0.113044 9.92938 0.0620322C10.9671 0.237108 11.9093 0.774211 12.5886 1.57801C13.2679 2.38182 13.6405 3.4003 13.6401 4.45271V6.57234H14.3438C14.5286 6.57206 14.7115 6.60824 14.8823 6.67874C15.053 6.74924 15.2082 6.85271 15.3389 6.98323C15.4696 7.11375 15.5733 7.26876 15.6441 7.43939C15.7148 7.61003 15.7513 7.79296 15.7513 7.97769V11.3415L18.3224 13.3298C18.416 13.4048 18.4768 13.5134 18.4918 13.6324C18.5069 13.7515 18.475 13.8718 18.4029 13.9678ZM9.58738 6.56174H11.2958V4.4421C11.3238 4.14814 11.29 3.85159 11.1967 3.57143C11.1034 3.29127 10.9526 3.0337 10.7539 2.81522C10.5553 2.59675 10.3131 2.4222 10.0431 2.30276C9.77303 2.18331 9.481 2.12163 9.18571 2.12163C8.89042 2.12163 8.59839 2.18331 8.32833 2.30276C8.05828 2.4222 7.81616 2.59675 7.6175 2.81522C7.41884 3.0337 7.26801 3.29127 7.1747 3.57143C7.08138 3.85159 7.04763 4.14814 7.07561 4.4421V4.60532L9.58738 6.56174Z" fill="#CCCCCC"/>
  <path d="M4.22683 6.56174L14.9585 14.8559C14.7667 14.9505 14.5556 14.9998 14.3417 15H4.0297C3.65643 15 3.29844 14.8517 3.0345 14.5878C2.77055 14.3238 2.62227 13.9659 2.62227 13.5926V7.96708C2.62227 7.78235 2.65869 7.59943 2.72945 7.42879C2.80021 7.25815 2.90391 7.10314 3.03463 6.97262C3.16535 6.8421 3.32052 6.73863 3.49127 6.66813C3.66202 6.59763 3.84498 6.56146 4.0297 6.56174H4.22683ZM18.4029 13.9678L17.8349 14.699C17.7976 14.7469 17.7512 14.787 17.6984 14.817C17.6456 14.8469 17.5875 14.8662 17.5272 14.8737C17.467 14.8812 17.4059 14.8767 17.3474 14.8605C17.2889 14.8444 17.2341 14.8169 17.1863 14.7796L16.6606 14.3726C16.6413 14.3462 16.6185 14.3227 16.5928 14.3026L15.7449 13.6498L12.93 11.473L5.49013 5.70757V5.71813L4.73767 5.13735L3.39806 4.10087C3.37171 4.08087 3.34238 4.06514 3.31115 4.05425L0.178338 1.63152C0.0814905 1.55582 0.0186169 1.44478 0.00351715 1.32279C-0.0115826 1.2008 0.0223233 1.07781 0.0977905 0.980781L0.66585 0.25164C0.702989 0.203595 0.74923 0.163295 0.801937 0.133135C0.854643 0.102975 0.91278 0.0835265 0.973018 0.0758491C1.03326 0.0681716 1.09441 0.072448 1.153 0.0884241C1.21159 0.1044 1.26645 0.131751 1.31446 0.168945L4.01274 2.25468V2.24195L4.98354 2.99231C5.32847 1.99803 6.01455 1.15814 6.91998 0.621696C7.82541 0.0852517 8.89163 -0.113044 9.92938 0.0620322C10.9671 0.237108 11.9093 0.774211 12.5886 1.57801C13.2679 2.38182 13.6405 3.4003 13.6401 4.45271V6.57234H14.3438C14.5286 6.57206 14.7115 6.60824 14.8823 6.67874C15.053 6.74924 15.2082 6.85271 15.3389 6.98323C15.4696 7.11375 15.5733 7.26876 15.6441 7.43939C15.7148 7.61003 15.7513 7.79296 15.7513 7.97769V11.3415L18.3224 13.3298C18.416 13.4048 18.4768 13.5134 18.4918 13.6324C18.5069 13.7515 18.475 13.8718 18.4029 13.9678ZM9.58738 6.56174H11.2958V4.4421C11.3238 4.14814 11.29 3.85159 11.1967 3.57143C11.1034 3.29127 10.9526 3.0337 10.7539 2.81522C10.5553 2.59675 10.3131 2.4222 10.0431 2.30276C9.77303 2.18331 9.481 2.12163 9.18571 2.12163C8.89042 2.12163 8.59839 2.18331 8.32833 2.30276C8.05828 2.4222 7.81616 2.59675 7.6175 2.81522C7.41884 3.0337 7.26801 3.29127 7.1747 3.57143C7.08138 3.85159 7.04763 4.14814 7.07561 4.4421V4.60532L9.58738 6.56174Z" fill="#CCCCCC"/>
  <path d="M4.22683 6.56174L14.9585 14.8559C14.7667 14.9505 14.5556 14.9998 14.3417 15H4.0297C3.65643 15 3.29844 14.8517 3.0345 14.5878C2.77055 14.3238 2.62227 13.9659 2.62227 13.5926V7.96708C2.62227 7.78235 2.65869 7.59943 2.72945 7.42879C2.80021 7.25815 2.90391 7.10314 3.03463 6.97262C3.16535 6.8421 3.32052 6.73863 3.49127 6.66813C3.66202 6.59763 3.84498 6.56146 4.0297 6.56174H4.22683ZM18.4029 13.9678L17.8349 14.699C17.7976 14.7469 17.7512 14.787 17.6984 14.817C17.6456 14.8469 17.5875 14.8662 17.5272 14.8737C17.467 14.8812 17.4059 14.8767 17.3474 14.8605C17.2889 14.8444 17.2341 14.8169 17.1863 14.7796L16.6606 14.3726C16.6413 14.3462 16.6185 14.3227 16.5928 14.3026L15.7449 13.6498L12.93 11.473L5.49013 5.70757V5.71813L4.73767 5.13735L3.39806 4.10087C3.37171 4.08087 3.34238 4.06514 3.31115 4.05425L0.178338 1.63152C0.0814905 1.55582 0.0186169 1.44478 0.00351715 1.32279C-0.0115826 1.2008 0.0223233 1.07781 0.0977905 0.980781L0.66585 0.25164C0.702989 0.203595 0.74923 0.163295 0.801937 0.133135C0.854643 0.102975 0.91278 0.0835265 0.973018 0.0758491C1.03326 0.0681716 1.09441 0.072448 1.153 0.0884241C1.21159 0.1044 1.26645 0.131751 1.31446 0.168945L4.01274 2.25468V2.24195L4.98354 2.99231C5.32847 1.99803 6.01455 1.15814 6.91998 0.621696C7.82541 0.0852517 8.89163 -0.113044 9.92938 0.0620322C10.9671 0.237108 11.9093 0.774211 12.5886 1.57801C13.2679 2.38182 13.6405 3.4003 13.6401 4.45271V6.57234H14.3438C14.5286 6.57206 14.7115 6.60824 14.8823 6.67874C15.053 6.74924 15.2082 6.85271 15.3389 6.98323C15.4696 7.11375 15.5733 7.26876 15.6441 7.43939C15.7148 7.61003 15.7513 7.79296 15.7513 7.97769V11.3415L18.3224 13.3298C18.416 13.4048 18.4768 13.5134 18.4918 13.6324C18.5069 13.7515 18.475 13.8718 18.4029 13.9678ZM9.58738 6.56174H11.2958V4.4421C11.3238 4.14814 11.29 3.85159 11.1967 3.57143C11.1034 3.29127 10.9526 3.0337 10.7539 2.81522C10.5553 2.59675 10.3131 2.4222 10.0431 2.30276C9.77303 2.18331 9.481 2.12163 9.18571 2.12163C8.89042 2.12163 8.59839 2.18331 8.32833 2.30276C8.05828 2.4222 7.81616 2.59675 7.6175 2.81522C7.41884 3.0337 7.26801 3.29127 7.1747 3.57143C7.08138 3.85159 7.04763 4.14814 7.07561 4.4421V4.60532L9.58738 6.56174Z" fill="#CCCCCC"/>
</svg>
