<svg width="16" height="16" viewBox="0 0 16 16" fill="none" xmlns="http://www.w3.org/2000/svg">
  <path d="M15.0663 7.10837H14.3906C14.0417 7.10822 13.7008 7.00336 13.4108 6.80701C13.1208 6.61066 12.8949 6.33163 12.7616 6.00527C12.6282 5.67891 12.5935 5.31988 12.6617 4.97354C12.73 4.62719 12.8982 4.30908 13.145 4.0595L13.6157 3.58066C13.7662 3.41049 13.8467 3.18845 13.8405 2.96013C13.8344 2.73181 13.7422 2.5145 13.5828 2.35285C13.4234 2.1912 13.209 2.09746 12.9835 2.09085C12.7579 2.08424 12.5385 2.16528 12.3701 2.31733L11.8971 2.79623C11.6504 3.04625 11.3361 3.21651 10.9937 3.28554C10.6514 3.35456 10.2966 3.3192 9.97411 3.18393C9.65166 3.04866 9.37609 2.81957 9.18231 2.52566C8.98854 2.23175 8.88526 1.88626 8.88556 1.5329V0.848789C8.87413 0.619818 8.77622 0.404043 8.6121 0.246074C8.44798 0.0881059 8.23019 0 8.00373 0C7.77727 0 7.55946 0.0881059 7.39534 0.246074C7.23121 0.404043 7.13331 0.619818 7.12188 0.848789V1.5329C7.12218 1.88626 7.0189 2.23175 6.82513 2.52566C6.63135 2.81957 6.3558 3.04866 6.03334 3.18393C5.71088 3.3192 5.35603 3.35456 5.01371 3.28554C4.67139 3.21651 4.357 3.04625 4.11034 2.79623L3.63732 2.31733C3.46988 2.1598 3.24862 2.07414 3.02007 2.07838C2.79153 2.08262 2.57352 2.17641 2.41189 2.34004C2.25026 2.50368 2.15761 2.72441 2.15342 2.95579C2.14924 3.18716 2.23384 3.41114 2.38945 3.58066L2.86247 4.0595C3.10929 4.30908 3.27746 4.62719 3.34571 4.97354C3.41396 5.31988 3.37922 5.67891 3.24588 6.00527C3.11255 6.33163 2.88661 6.61066 2.59664 6.80701C2.30668 7.00336 1.96571 7.10822 1.61685 7.10837H0.941114C0.821947 7.10041 0.702421 7.11699 0.589771 7.15714C0.477121 7.19729 0.373689 7.26019 0.285728 7.34197C0.197767 7.42376 0.127107 7.5227 0.0780236 7.63292C0.0289404 7.74314 0.00244941 7.86233 0.00016196 7.98321C-0.00212549 8.1041 0.0198383 8.22419 0.0647155 8.33624C0.109593 8.44828 0.176454 8.54996 0.261256 8.63509C0.346059 8.72022 0.44704 8.78702 0.558089 8.8315C0.669137 8.87599 0.787947 8.89725 0.907328 8.89391H1.60784C1.95689 8.89361 2.29817 8.99815 2.58848 9.19432C2.8788 9.3905 3.10509 9.66945 3.2387 9.9959C3.37232 10.3224 3.40724 10.6816 3.33906 11.0282C3.27088 11.3747 3.10267 11.693 2.85571 11.9427L2.38269 12.4216C2.23251 12.5921 2.15246 12.8142 2.15899 13.0425C2.16552 13.2709 2.25813 13.488 2.4178 13.6493C2.57748 13.8107 2.7921 13.9041 3.01763 13.9103C3.24315 13.9165 3.46247 13.835 3.63056 13.6827L4.10358 13.2038C4.35024 12.9538 4.66462 12.7834 5.00694 12.7144C5.34926 12.6454 5.70412 12.6808 6.02658 12.8161C6.34903 12.9513 6.6246 13.1804 6.81838 13.4743C7.01215 13.7682 7.11543 14.1137 7.11513 14.4671V15.1512C7.12656 15.3802 7.22445 15.596 7.38857 15.7539C7.5527 15.9119 7.7705 16 7.99696 16C8.22342 16 8.44123 15.9119 8.60535 15.7539C8.76947 15.596 8.86738 15.3802 8.87881 15.1512V14.4671C8.87958 14.1142 8.98349 13.7694 9.17744 13.4762C9.3714 13.183 9.64672 12.9545 9.96874 12.8194C10.2908 12.6843 10.6451 12.6487 10.987 12.7171C11.329 12.7855 11.6433 12.9549 11.8904 13.2038L12.3634 13.6827C12.5285 13.8499 12.7526 13.9438 12.9862 13.9438C13.2198 13.9438 13.4438 13.8499 13.609 13.6827C13.7742 13.5154 13.867 13.2886 13.867 13.0521C13.867 12.8156 13.7742 12.5888 13.609 12.4216L13.136 11.9427C12.889 11.693 12.7208 11.3747 12.6526 11.0282C12.5844 10.6816 12.6194 10.3224 12.753 9.9959C12.8866 9.66945 13.1129 9.3905 13.4032 9.19432C13.6935 8.99815 14.0348 8.89361 14.3838 8.89391H15.0596C15.1788 8.90178 15.2983 8.88507 15.411 8.84481C15.5236 8.80455 15.627 8.74154 15.7149 8.65964C15.8029 8.57774 15.8734 8.47867 15.9224 8.36836C15.9714 8.25805 15.9977 8.13877 15.9999 8.01784C16.002 7.89692 15.9799 7.77684 15.9348 7.66482C15.8898 7.55281 15.8228 7.45122 15.7378 7.36619C15.6528 7.28117 15.5517 7.21448 15.4406 7.17017C15.3294 7.12585 15.2105 7.10482 15.0911 7.10837C15.0807 7.10609 15.07 7.10609 15.0596 7.10837H15.0663ZM7.01827 8.50398C6.7238 8.50398 6.43593 8.41557 6.19108 8.24994C5.94624 8.08432 5.75541 7.84889 5.64272 7.57346C5.53003 7.29804 5.50054 6.99496 5.55799 6.70257C5.61544 6.41018 5.75724 6.14158 5.96547 5.93078C6.17369 5.71998 6.43899 5.57646 6.72781 5.5183C7.01662 5.46014 7.31598 5.48995 7.58804 5.60403C7.8601 5.71812 8.09262 5.91133 8.25622 6.1592C8.41982 6.40708 8.50715 6.69852 8.50715 6.99664C8.50715 7.3964 8.35028 7.77982 8.07106 8.06249C7.79184 8.34517 7.41315 8.50398 7.01827 8.50398ZM9.49599 10.2621C9.34853 10.2621 9.20438 10.2179 9.08177 10.1349C8.95916 10.052 8.8636 9.93407 8.80717 9.79615C8.75074 9.65823 8.73598 9.50648 8.76474 9.36006C8.79351 9.21364 8.86452 9.07914 8.96879 8.97358C9.07306 8.86802 9.20591 8.79616 9.35053 8.76703C9.49516 8.73791 9.64506 8.75283 9.7813 8.80996C9.91753 8.86709 10.034 8.96386 10.1159 9.08799C10.1978 9.21211 10.2416 9.35803 10.2416 9.50732C10.2416 9.70711 10.1633 9.89873 10.024 10.0402C9.88464 10.1817 9.69559 10.2615 9.49824 10.2621H9.49599Z" fill="#333333"/>
</svg>