<svg id="Layer_1" data-name="Layer 1" xmlns="http://www.w3.org/2000/svg" viewBox="0 0 100 100"><defs><style>.cls-1{fill:#bdbdbd;fill-rule:evenodd;}</style></defs><title>Artboard 65</title><path class="cls-1" d="M63.67,29.33a29.35,29.35,0,0,1,8.75,1.25,16.75,16.75,0,0,1,5,2.5v36.5a1.34,1.34,0,0,1-1.25,1.25,1.15,1.15,0,0,1-.62-.12,25.39,25.39,0,0,0-11.88-2.63,30.07,30.07,0,0,0-13.75,3.75c-3.62-2.75-8.87-3.75-13.75-3.75A30.58,30.58,0,0,0,24.3,70.83a1,1,0,0,0-.32.06.9.9,0,0,1-.31.06,1.34,1.34,0,0,1-1.25-1.25V33.08c3.63-2.75,8.88-3.75,13.75-3.75s10.13,1,13.75,3.75C53.55,30.33,58.8,29.33,63.67,29.33Zm0,33.75a28.89,28.89,0,0,1,8.75,1.25V35.58a29.21,29.21,0,0,0-8.75-1.25,30.07,30.07,0,0,0-13.75,3.75V66.83A30.19,30.19,0,0,1,63.67,63.08Z"/></svg>