<svg width="1000" height="90" viewBox="0 0 1000 90" fill="none" xmlns="http://www.w3.org/2000/svg">
<path d="M608.879 24.6089C599.473 25.8286 589.391 32.6135 585.478 40.3894C583.22 44.811 581.64 51.5959 581.64 56.5511C581.64 61.5063 583.22 68.2912 585.478 72.7128C587.81 77.3631 593.83 83.0044 599.172 85.5964C611.136 91.2377 628.518 89.1032 636.193 80.9461L638.375 78.6591L632.054 72.2554L630.023 74.2375C625.658 78.3541 621.67 79.8026 614.748 79.8026C609.857 79.8026 607.524 79.4214 604.891 78.2017C599.774 75.7622 595.937 71.9504 593.529 66.8427C587.961 54.7977 593.077 40.3132 604.891 34.9768C612.716 31.47 622.95 32.766 628.969 37.9499L632.205 40.7706L635.29 37.645L638.375 34.4431L636.193 32.0799C630.624 26.2098 619.714 23.2367 608.879 24.6089Z" fill="#333333"/>
<path d="M803.988 24.609C791.422 26.2099 781.414 34.062 777.502 45.3447C775.696 50.6049 775.696 63.1073 777.577 67.9863C780.888 76.982 788.487 84.2243 797.517 87.1212C803.235 88.8746 813.469 89.2557 818.736 87.8073C829.797 84.7579 837.998 76.4484 840.858 65.3181C843.867 53.3493 840.18 39.7796 831.828 32.3849C827.915 28.8781 820.843 25.4476 816.478 24.9139C809.782 24.0753 808.427 24.0753 803.988 24.609ZM818.736 34.9769C823.777 37.2639 827.69 41.0756 830.098 46.2595C831.828 49.995 832.204 51.8247 832.204 56.5512C832.204 66.3854 827.314 74.1613 818.736 78.2017C813.845 80.4125 803.912 80.4125 799.022 78.2017C782.393 70.4258 780.587 46.1833 795.937 36.5778C802.257 32.6136 811.964 31.9275 818.736 34.9769Z" fill="#333333"/>
<path d="M710.309 88.7983L727.088 88.3409C741.159 88.0359 744.545 87.731 748.608 86.435C755.004 84.3004 760.722 80.1838 764.033 75.381C768.322 69.0536 769.3 65.623 769.3 56.5511C769.3 47.4792 768.322 44.0487 764.033 37.7212C760.722 32.9185 755.004 28.8018 748.608 26.6673C744.545 25.3713 741.159 25.0663 727.088 24.7614L710.309 24.304V88.7983ZM747.254 35.6629C751.994 37.8737 755.531 41.3043 757.713 45.6496C759.293 48.7752 759.594 50.3761 759.594 56.5511C759.594 62.7261 759.293 64.327 757.713 67.4526C755.531 71.798 751.994 75.2286 747.254 77.4393C744.319 78.8116 742.062 79.0403 731.603 79.269L719.338 79.5739V33.5283L731.603 33.8333C742.062 34.062 744.319 34.2907 747.254 35.6629Z" fill="#333333"/>
<path d="M465.764 88.5682H508.653V79.4201H474.793V25.2937H465.764V88.5682Z" fill="#333333"/>
<path d="M648.608 87.8072H657.637V72.1029L663.356 66.4615C668.247 61.5063 669.15 60.8964 669.902 61.9637C670.429 62.5736 675.47 68.6723 681.264 75.4572L691.723 87.8072H697.291C700.376 87.8072 702.784 87.5022 702.634 87.1973C702.558 86.8924 696.464 79.2689 689.24 70.4257C682.017 61.5063 675.997 53.9591 675.922 53.6542C675.847 53.3492 681.49 46.9456 688.563 39.3984L701.354 25.6762L690.369 25.2188L657.713 59.2193L657.637 42.219V25.295H648.608V87.8072Z" fill="#333333"/>
<path d="M844.996 25.8287C844.996 26.2099 849.586 40.4657 855.229 57.5422L865.463 88.6458L875.32 88.1884L883.296 64.4033C887.66 51.291 891.497 40.5419 891.723 40.5419C891.949 40.5419 894.432 47.4793 897.291 55.9413C900.075 64.4795 903.762 75.3048 905.417 80.0313L908.352 88.5696H917.833L928.066 57.466C933.709 40.3895 938.299 26.2099 938.299 25.8287C938.299 25.5238 936.268 25.2951 933.86 25.2951H929.421L921.144 50.2237L912.942 75.2286L896.539 25.2951H887.434L879.232 49.6138C874.642 63.0311 870.73 73.7801 870.429 73.4752C870.203 73.1703 866.516 62.1925 862.302 49.0802L854.627 25.2951H849.812C847.178 25.2951 844.996 25.5238 844.996 25.8287Z" fill="#333333"/>
<path d="M946.576 87.8072H955.606L955.756 65.1656L955.982 42.6002L973.965 65.1656L991.874 87.8072H1000V25.295H990.971L990.82 47.9366L990.594 70.502L972.611 47.9366L954.703 25.295H946.576V87.8072Z" fill="#333333"/>
<path d="M543.215 89.8711C524.603 89.8711 509.444 74.7124 509.444 56.1002C509.444 37.4881 524.603 22.3294 543.215 22.3294C561.827 22.3294 576.986 37.4881 576.986 56.1002C576.986 74.7124 561.827 89.8711 543.215 89.8711ZM557.873 59.2374C557.609 66.1181 556.344 72.6561 554.314 77.6914C553.628 79.3787 552.89 80.855 552.046 82.1731C562.038 78.7723 569.367 69.7826 570.553 59.2374H557.873ZM515.877 59.2374C517.089 69.7826 524.418 78.7723 534.357 82.1731C533.513 80.855 532.775 79.3787 532.116 77.6914C530.086 72.6298 528.873 66.2763 528.583 59.2374H515.877ZM534.805 59.2111C535.069 65.3272 536.176 71.0216 537.916 75.3451C539.84 80.1432 541.976 81.8568 543.215 81.8568C544.454 81.8568 546.589 80.1432 548.54 75.3451C550.28 70.9953 551.361 65.3009 551.651 59.2111H534.805ZM570.58 52.9894C569.367 42.4179 562.038 33.4282 552.073 30.0537C552.916 31.3719 553.655 32.8745 554.34 34.5354C556.37 39.5971 557.583 45.9505 557.873 52.9894H570.58ZM551.625 52.9894C551.361 46.8732 550.254 41.1789 548.514 36.8553C546.589 32.0573 544.454 30.3437 543.215 30.3437C541.976 30.3437 539.84 32.0573 537.916 36.8553C536.176 41.2052 535.069 46.8996 534.805 52.9894H551.625ZM528.583 52.9631C528.847 46.0823 530.113 39.5444 532.142 34.509C532.828 32.8218 533.566 31.3455 534.41 30.0274C524.418 33.4282 517.089 42.3915 515.877 52.9631H528.583Z" fill="#333333"/>
<path d="M563.04 34.6936C561.959 34.6936 561.906 33.639 561.88 32.7691C561.853 32.2682 561.853 31.7409 561.853 31.5827L562.776 30.8709L562.961 30.95V30.7391L563.198 30.5546L563.251 30.5809L563.145 31.0027L563.303 31.0555V31.5036L564.358 31.7936C564.305 32.4791 564.252 33.0063 564.226 33.3227C564.121 33.6918 563.989 34.6936 563.04 34.6936Z" fill="#333333"/>
<path d="M522.151 32.6372V31.8464C522.151 31.7409 522.177 31.6355 522.177 31.5827C522.151 31.7936 522.23 32.0309 522.336 32.1363L522.546 31.5827L523.047 30.2909H523.258L524.313 31.3455V32.1627H523.364L524.023 32.6372H522.151Z" fill="#333333"/>
<path d="M564.015 32.1627L563.831 32.11L562.196 31.6618L562.223 31.4509L562.17 31.4246C562.17 30.8182 562.196 29.6582 563.277 29.6582C564.305 29.6582 564.358 30.6864 564.358 31.0818C564.358 31.1609 564.358 31.2664 564.358 31.3455V31.4246C564.305 31.82 564.279 32.0046 564.2 32.1891L564.015 32.1627Z" fill="#333333"/>
<path d="M557.789 31.2664C557.367 31.2137 557.13 30.95 556.998 30.6337C556.392 30.5546 556.049 30.08 555.97 29.1573C555.944 28.8146 555.917 28.3928 555.917 27.9183C555.891 27.4965 555.891 27.0747 555.865 26.7056L556.392 26.6792L556.946 26.6001L557.288 26.5474H557.367L557.947 26.4683C557.842 26.2838 557.552 26.0202 557.13 26.0202C556.946 26.0202 556.814 26.0729 556.682 26.1256C556.682 26.0465 556.682 25.9411 556.682 25.8356V15.7386C556.682 11.1779 552.965 7.4607 548.404 7.4607H537.964C533.404 7.4607 529.686 11.1779 529.686 15.7386V25.862C529.686 25.9938 529.686 26.0993 529.686 26.2047C529.792 26.2047 529.924 26.1783 530.029 26.1783C530.556 26.1783 530.846 26.4156 530.978 26.6001L531.163 27.4438H531.189C531.031 28.3401 530.451 28.8674 530.055 29.2101C529.95 29.3155 529.792 29.4473 529.739 29.5264C529.739 29.5792 529.792 29.8164 530.135 30.3173C530.345 30.6337 530.398 31.0291 530.266 31.3718C530.108 31.7409 529.818 31.9782 529.37 32.0573H529.344C529.502 32.0309 529.766 31.82 529.818 31.53L528.79 32.4H523.254L522.199 31.3455L522.173 15.7386C522.173 7.06525 529.238 0 537.912 0H548.378C557.051 0 564.116 7.06525 564.116 15.7386L563.958 31.5564L562.64 32.5845L557.789 31.2664Z" fill="#333333"/>
<path d="M523.337 31.9781C523.311 32.0572 523.285 32.11 523.258 32.1363C523.364 32.0572 523.548 33.059 523.337 31.9781Z" fill="#333333"/>
<path d="M522.362 31.5827L522.546 31.3718L524.128 32.7427L524.075 32.8218L522.362 31.5827Z" fill="#333333"/>
<path d="M556.106 25.9147L556.897 25.572L557.952 26.5211L555.843 26.7584L556.106 25.9147Z" fill="#333333"/>
<path d="M522.309 32.1891L522.283 32.0045C522.204 31.6354 522.283 31.2927 522.52 31.0027C522.757 30.7127 523.1 30.5282 523.469 30.5282L524.365 31.0291C524.708 31.5564 524.445 32.1363 524.313 32.4263L522.309 32.1891Z" fill="#333333"/>
<path d="M24.5904 24.9949C32.7572 24.9949 39.1825 26.9465 43.8664 30.8497C48.5503 34.7529 50.8922 40.1274 50.8922 46.9731C50.8922 53.8188 48.5503 59.1932 43.8664 63.0965C39.1825 66.9997 32.7572 68.9513 24.5904 68.9513H9.00747V88.0472H0V24.9949H24.5904ZM24.3202 61.1148C30.0249 61.1148 34.3785 59.9138 37.381 57.5118C40.3835 55.0498 41.8847 51.5369 41.8847 46.9731C41.8847 42.4093 40.3835 38.9264 37.381 36.5244C34.3785 34.0624 30.0249 32.8314 24.3202 32.8314H9.00747V61.1148H24.3202Z" fill="#333333"/>
<path d="M106.28 88.0472L92.6791 68.6811C90.9977 68.8012 89.6766 68.8612 88.7158 68.8612H73.1329V88.0472H64.1254V24.9949H88.7158C96.8826 24.9949 103.308 26.9465 107.992 30.8497C112.676 34.7529 115.018 40.1274 115.018 46.9731C115.018 51.8371 113.817 55.9806 111.415 59.4034C109.013 62.8262 105.59 65.3183 101.146 66.8796L116.099 88.0472H106.28ZM88.4456 61.2049C94.1503 61.2049 98.504 59.9739 101.506 57.5118C104.509 55.0498 106.01 51.5369 106.01 46.9731C106.01 42.4093 104.509 38.9264 101.506 36.5244C98.504 34.0624 94.1503 32.8314 88.4456 32.8314H73.1329V61.2049H88.4456Z" fill="#333333"/>
<path d="M158.034 88.7677C151.669 88.7677 145.934 87.3866 140.83 84.6243C135.725 81.802 131.702 77.9288 128.76 73.0047C125.877 68.0806 124.436 62.586 124.436 56.521C124.436 50.456 125.877 44.9614 128.76 40.0373C131.702 35.1133 135.725 31.2701 140.83 28.5078C145.934 25.6854 151.669 24.2743 158.034 24.2743C164.339 24.2743 170.044 25.6854 175.148 28.5078C180.252 31.2701 184.246 35.1133 187.128 40.0373C190.01 44.9014 191.452 50.3959 191.452 56.521C191.452 62.6461 190.01 68.1707 187.128 73.0947C184.246 77.9588 180.252 81.802 175.148 84.6243C170.044 87.3866 164.339 88.7677 158.034 88.7677ZM158.034 80.7511C162.658 80.7511 166.801 79.7002 170.464 77.5985C174.187 75.4967 177.1 72.6144 179.201 68.9513C181.363 65.2282 182.444 61.0848 182.444 56.521C182.444 51.9572 181.363 47.8438 179.201 44.1808C177.1 40.4577 174.187 37.5453 170.464 35.4435C166.801 33.3418 162.658 32.2909 158.034 32.2909C153.41 32.2909 149.207 33.3418 145.423 35.4435C141.7 37.5453 138.758 40.4577 136.596 44.1808C134.494 47.8438 133.444 51.9572 133.444 56.521C133.444 61.0848 134.494 65.2282 136.596 68.9513C138.758 72.6144 141.7 75.4967 145.423 77.5985C149.207 79.7002 153.41 80.7511 158.034 80.7511Z" fill="#333333"/>
<path d="M212.006 88.7677C208.223 88.7677 204.71 87.9871 201.468 86.4258C198.225 84.8045 195.613 82.5526 193.631 79.6702L198.855 73.5451C202.338 78.5293 206.722 81.0213 212.006 81.0213C215.549 81.0213 218.221 79.9404 220.023 77.7786C221.884 75.6168 222.815 72.4342 222.815 68.2307V32.8314H200.026V24.9949H231.733V67.7803C231.733 74.7461 230.051 80.0005 226.688 83.5434C223.386 87.0263 218.492 88.7677 212.006 88.7677Z" fill="#333333"/>
<path d="M295.838 80.2106V88.0472H250.08V24.9949H294.577V32.8314H259.088V52.1974H290.704V59.8538H259.088V80.2106H295.838Z" fill="#333333"/>
<path d="M338.353 88.7677C332.048 88.7677 326.343 87.3866 321.239 84.6243C316.195 81.802 312.231 77.9588 309.349 73.0947C306.466 68.1707 305.025 62.6461 305.025 56.521C305.025 50.3959 306.466 44.9014 309.349 40.0373C312.231 35.1133 316.225 31.2701 321.329 28.5078C326.433 25.6854 332.138 24.2743 338.443 24.2743C343.367 24.2743 347.871 25.115 351.954 26.7964C356.038 28.4177 359.52 30.8497 362.403 34.0924L356.548 39.7671C351.804 34.783 345.889 32.2909 338.803 32.2909C334.119 32.2909 329.886 33.3418 326.103 35.4435C322.32 37.5453 319.347 40.4577 317.185 44.1808C315.084 47.8438 314.033 51.9572 314.033 56.521C314.033 61.0848 315.084 65.2282 317.185 68.9513C319.347 72.6144 322.32 75.4967 326.103 77.5985C329.886 79.7002 334.119 80.7511 338.803 80.7511C345.829 80.7511 351.744 78.229 356.548 73.1848L362.403 78.8595C359.52 82.1022 356.008 84.5643 351.864 86.2457C347.781 87.9271 343.277 88.7677 338.353 88.7677Z" fill="#333333"/>
<path d="M387.069 32.8314H365.451V24.9949H417.605V32.8314H395.987V88.0472H387.069V32.8314Z" fill="#333333"/>
</svg>
