<?xml version="1.0" encoding="utf-8"?>
<!-- Generator: Adobe Illustrator 17.0.0, SVG Export Plug-In . SVG Version: 6.00 Build 0)  -->
<!DOCTYPE svg PUBLIC "-//W3C//DTD SVG 1.1//EN" "http://www.w3.org/Graphics/SVG/1.1/DTD/svg11.dtd">
<svg version="1.1" id="Layer_1" xmlns="http://www.w3.org/2000/svg" xmlns:xlink="http://www.w3.org/1999/xlink" x="0px" y="0px"
	 width="480px" height="480px" viewBox="0 0 480 480" enable-background="new 0 0 480 480" xml:space="preserve">
<rect fill="#FFFFFF" width="480" height="480"/>
<path fill="#333333" d="M348.003,161.453l0.711-71.237C348.714,45.442,312.243,9,267.469,9h-54.027
	C168.671,9,132.2,45.442,132.2,90.216l0.119,71.732c-40.29,31.968-66.192,81.327-66.192,136.599
	c0,96.08,78.253,174.325,174.333,174.325s174.329-78.251,174.329-174.331C414.788,242.995,388.635,193.406,348.003,161.453z
	 M381.717,282h-65.594c-1.496-36-7.756-68.893-18.237-95.023c-3.537-8.573-7.348-16.451-11.704-23.255
	C337.624,181.142,375.457,228,381.717,282z M171,90.186C171,66.643,190.171,47,213.716,47h53.89C291.15,47,310,66.643,310,90.186
	v48.675c-21-9.413-44.867-14.652-69.702-14.652c-24.679,0-48.298,5.174-69.298,14.475V90.186z M283.871,282h-86.827
	c1.363-31,7.078-60.592,16.06-83.046c9.934-24.769,20.96-33.494,27.356-33.494s17.419,8.666,27.352,33.434
	C276.793,221.212,282.508,251,283.871,282z M99.334,315h65.594c1.496,36,7.756,69,18.237,95.13c3.4,8.707,7.211,16.397,11.567,23.2
	C143.424,415.775,105.594,369,99.334,315z M183.299,186.91C172.821,212.903,166.287,247,164.928,282H99.334
	c6.259-54,44.089-100.756,95.668-118.312C190.647,170.493,186.84,178.2,183.299,186.91z M267.948,398.087
	c-10.07,24.767-21.093,33.511-27.489,33.511s-17.423-8.693-27.356-33.461c-8.982-22.32-14.696-52.137-16.06-83.137h86.965
	C282.508,346,276.93,375.63,267.948,398.087z M286.049,433.264c4.352-6.804,8.163-14.359,11.704-23.067
	C308.23,384.203,314.764,350,316.123,315h65.46C375.457,369,337.624,415.708,286.049,433.264z"/>
</svg>
